{"title":"Clash Of The Titans 2010 TS XViD - IMAGiNE","uid":5491779,"size":1461003666,"categoryP":"video","categoryS":"movies","magnet":"?xt=urn:btih:7b7690eabf54cb44d582845f02363dae5cf32e8b&amp;dn=Clash+Of+The+Titans+2010+TS+XViD+-+IMAGiNE&amp;tr=udp%3A%2F%2Ftracker.openbittorrent.com%3A80&amp;tr=udp%3A%2F%2Fopen.demonii.com%3A1337&amp;tr=udp%3A%2F%2Ftracker.coppersurfer.tk%3A6969&amp;tr=udp%3A%2F%2Fexodus.desync.com%3A6969","seeders":0,"leechers":1,"uploader":"raymondhome","files":-1,"time":1271066653,"description":"Love for All and Sharing is the first step to solving all the problems of humanity.\n\nWebsites I want to share.\n\n    &lt;a href=&quot;\nhttp://www.shareintl.org/&quot; rel=&quot;nofollow&quot; target=&quot;_NEW&quot;&gt;\nhttp://www.shareintl.org/&lt;/a&gt;\n\n    &lt;a href=&quot;\nhttp://www.lightmiddleway.com&quot; rel=&quot;nofollow&quot; target=&quot;_NEW&quot;&gt;\nhttp://www.lightmiddleway.com&lt;/a&gt;\n\n\nThank you very much\n\nNo credit for me...credit to EVERYONE for sharing\n &lt;a href=&quot;\nhttp://thepiratebay.se/user/raymondhome/&quot; rel=&quot;nofollow&quot; target=&quot;_NEW&quot;&gt;\nhttp://thepiratebay.se/user/raymondhome/&lt;/a&gt;\n\nPLOT\nThe mortal son of the god Zeus embarks on a perilous journey to stop the underworld and its minions from spreading their evil to Earth as well as the heavens.\n\nRuntime.......:1h 35mn\nVideo\nFormat                           : MPEG-4 Visual\nFormat profile                   : Streaming Video@L1\nFormat settings, BVOP            : Yes\nFormat settings, QPel            : No\nFormat settings, GMC             : No warppoints\nFormat settings, Matrix          : Default\nMuxing mode                      : Packed bitstream\nCodec ID                         : XVID\nCodec ID/Hint                    : XviD\nDuration                         : 1h 35mn\nBit rate                         : 1 865 Kbps\nWidth                            : 720 pixels\nHeight                           : 272 pixels\nDisplay aspect ratio             : 2.647\nFrame rate                       : 23.976 fps\nResolution                       : 24 bits\nColorimetry                      : 4:2:0\nScan type                        : Progressive\nBits/(Pixel*Frame)               : 0.397\nStream size                      : 1.25 GiB (93%)\nWriting library                  : XviD 50\nAudio\nFormat                           : MPEG Audio\nFormat version                   : Version 1\nFormat profile                   : Layer 3\nCodec ID                         : 55\nCodec ID/Hint                    : MP3\nDuration                         : 1h 35mn\nBit rate mode                    : Constant\nBit rate                         : 128 Kbps\nChannel(s)                       : 2 channels\nSampling rate                    : 48.0 KHz\nResolution                       : 16 bits\nStream size                      : 87.6 MiB (6%)\nAlignment                        : Split accross interleaves\nInterleave, duration             : 42 ms (1.00 video frame)\nInterleave, preload duration     : 500 ms\n\nIMAGiNE NOTES\nRight firstly thanks to a special friend for the video ....audio is our own.\nWell at one stage we wasn't going to release this as it was a right pain in the ass.....mainly due to the cammer having the shakes :lol:\n\nWell to get this anywhere near good we've had to cut the source up into alot of small pieces and rotate, crop and filter each one differently and then resize them to the same res and join together......took days.\n\nSo on some parts the AR might look a bit off and other parts it looks fine, we tried to find a nice balance inbetween so.\n\nAudio was nice and sycning wise, it wasn't too bad.....10cuts or so in total.\n\nAnyway we have decided to release this now, but i will warn you there is still some parts you can tell when the cammer moves because you might see some black borders here and there...but after viewing and checking we think it's worth the release.\n\ncredit IMAGiNE &amp; h34dshot BIG BIG BIG TIME &amp; to all the people who made it possible for me to share this with everyone\n\n*****help what we can with haiti or any other in need...the world is ONE big family*****","torrent":{"xt":"urn:btih:7b7690eabf54cb44d582845f02363dae5cf32e8b","amp;dn":"Clash+Of+The+Titans+2010+TS+XViD+-+IMAGiNE","amp;tr":["udp%3A%2F%2Ftracker.openbittorrent.com%3A80","udp%3A%2F%2Fopen.demonii.com%3A1337","udp%3A%2F%2Ftracker.coppersurfer.tk%3A6969","udp%3A%2F%2Fexodus.desync.com%3A6969"],"infoHash":"7b7690eabf54cb44d582845f02363dae5cf32e8b","infoHashBuffer":{"type":"Buffer","data":[123,118,144,234,191,84,203,68,213,130,132,95,2,54,61,174,92,243,46,139]},"announce":[],"urlList":[]}}